<svg width="109" height="129" viewBox="0 0 109 129" fill="none" xmlns="http://www.w3.org/2000/svg">
<path d="M66.0239 33.6806C65.7135 33.3066 65.2908 33.0951 64.8488 33.0925L36.5147 32.9336C35.1609 32.9271 33.8367 33.4115 32.7183 34.3224C31.5998 35.2334 30.7401 36.5276 30.2534 38.033C29.7668 39.5385 29.6762 41.1838 29.9939 42.7501C30.3115 44.3164 31.0223 45.7295 32.0316 46.8014C30.9866 47.8863 30.2506 49.3311 29.9258 50.9351C29.6011 52.5392 29.7038 54.2229 30.2197 55.7523L11.5858 52.6865C10.7502 52.5584 9.90101 52.6438 9.09465 52.9371C8.28829 53.2303 7.54331 53.7246 6.90932 54.387C6.19808 55.171 5.63305 56.1241 5.25092 57.1843C4.8688 58.2446 4.67814 59.3883 4.69133 60.5411C4.80687 62.555 5.51 64.4562 6.67909 65.9157C7.84816 67.3752 9.40968 68.3013 11.0935 68.5337L23.6926 70.607L11.1078 72.533C9.41619 72.7112 7.83148 73.5986 6.636 75.0371C5.44052 76.4755 4.71191 78.3717 4.58 80.3876C4.55335 81.5531 4.73295 82.7117 5.10711 83.7882C5.48127 84.8646 6.04162 85.8349 6.75174 86.6358C7.38445 87.3109 8.13195 87.8158 8.94355 88.1162C9.75515 88.4166 10.6119 88.5056 11.4556 88.377L31.2231 84.8697L31.2028 88.4759C31.194 90.0549 31.7123 91.5723 32.6437 92.6942C33.5752 93.816 34.8435 94.4504 36.1696 94.4579L64.5037 94.6168C64.9457 94.6192 65.3707 94.4124 65.6853 94.0419L73.5829 84.7442L84.5599 84.8057L84.5487 86.7904C84.5458 87.3167 84.7185 87.8225 85.029 88.1965C85.3395 88.5704 85.7623 88.7819 86.2043 88.7844L102.871 88.8779C103.313 88.8804 103.739 88.6736 104.053 88.3032C104.368 87.9328 104.546 87.4289 104.549 86.9026L104.805 41.2555C104.808 40.7292 104.636 40.2234 104.325 39.8494C104.015 39.4755 103.592 39.264 103.15 39.2615L86.4826 39.168C86.0406 39.1655 85.6155 39.3723 85.3008 39.7427C84.9862 40.1131 84.8077 40.617 84.8048 41.1433L84.7937 43.128L73.8167 43.0664L66.0239 33.6806ZM87.8933 84.8244L88.1271 43.1467L94.7939 43.1841L94.5601 84.8618L87.8933 84.8244ZM101.461 43.2215L101.227 84.8992L97.8935 84.8805L98.1273 43.2028L101.461 43.2215ZM84.5821 80.8364L72.9151 80.771C72.4731 80.7686 72.0481 80.9754 71.7335 81.3459L63.8359 90.6436L36.1918 90.4886C35.7498 90.4861 35.327 90.2746 35.0166 89.9007C34.7061 89.5267 34.5333 89.0209 34.5363 88.4946L34.5585 84.5252L47.8922 84.6L47.9145 80.6307L32.9141 80.5466C32.7191 80.5455 11.041 84.4409 11.041 84.4409C10.6738 84.502 10.3001 84.4665 9.94603 84.337C9.59196 84.2075 9.26622 83.987 8.99173 83.6911C8.62976 83.2636 8.3469 82.7506 8.16122 82.1849C7.97554 81.6193 7.89114 81.0135 7.91342 80.4063C8.05438 79.3703 8.48353 78.4201 9.13196 77.7082C9.78039 76.9963 10.6105 76.564 11.489 76.4808L36.4069 72.661L41.3022 72.6548L41.3044 68.6853L36.4191 68.6917L11.519 64.5945C10.6426 64.4791 9.82387 64.0202 9.19138 63.2899C8.55889 62.5596 8.14851 61.5992 8.02475 60.5598C8.00846 59.9667 8.09655 59.3759 8.28335 58.8252C8.47014 58.2746 8.75152 57.7764 9.10941 57.3625C9.3877 57.0731 9.71481 56.8581 10.0686 56.732C10.4225 56.606 10.7947 56.5718 11.1603 56.6318L35.0264 60.5525C35.3176 60.6256 36.3588 60.7187 36.3588 60.7187L48.0258 60.7842L48.0481 56.8149L36.3811 56.7494C36.3394 56.7492 35.6283 56.642 35.6283 56.642C34.8327 56.4168 34.135 55.851 33.6681 55.0522C33.2011 54.2534 32.9975 53.2774 33.0959 52.31C33.1944 51.3427 33.5881 50.4516 34.2021 49.8063C34.8161 49.1611 35.6075 48.8067 36.4256 48.8108L48.0926 48.8762L48.1149 44.9069L36.4479 44.8415C35.5638 44.8365 34.7183 44.4136 34.0973 43.6657C33.4764 42.9178 33.1308 41.9062 33.1367 40.8535C33.1427 39.8008 33.4995 38.7931 34.1288 38.0522C34.7581 37.3113 35.6084 36.8979 36.4924 36.9029L64.1365 37.0579L71.9293 46.4437C72.2397 46.8177 72.6624 47.0292 73.1044 47.0318L84.7714 47.0973L84.5821 80.8364Z" fill="black"/>
<path d="M61.4708 41.0124L58.1374 40.9937L58.1151 44.963L60.7585 44.9778L68.5513 54.3636C68.8617 54.7376 69.2844 54.9491 69.7264 54.9517L76.3933 54.9891L76.4155 51.0198L70.4387 50.9863L62.6459 41.6005C62.3355 41.2265 61.9128 41.015 61.4708 41.0124Z" fill="black"/>
<path d="M54.7817 44.9443L54.804 40.975L51.4705 40.9563L51.4483 44.9257L54.7817 44.9443Z" fill="black"/>
</svg>
