<svg width="133" height="110" viewBox="0 0 133 110" fill="none" xmlns="http://www.w3.org/2000/svg">
<g clip-path="url(#clip0)">
<path d="M73.5915 8.20727C66.2854 8.21954 59.9474 11.8812 56.6375 18.0024C53.2393 24.2854 53.4041 32.4579 58.0542 39.7897C49.7188 37.5724 48.9189 37.4671 22.5861 31.2915C16.4329 29.8471 10.0021 32.8141 8.25184 37.9012C6.82035 42.0479 8.92083 46.3694 13.1937 48.6235L11.6857 48.6261C5.28718 48.6368 0.0885691 52.9515 0.0974563 58.2439C0.106344 63.5363 5.31942 67.8335 11.7179 67.8228L13.6691 67.8195C9.171 69.9767 6.82744 74.4673 8.31949 78.7824C10.0878 83.8678 16.5286 86.8123 22.6768 85.348L38.4593 81.5905L34.487 84.8875C29.9683 88.6369 29.9786 94.7267 34.5097 98.4609C39.0399 102.195 46.4014 102.183 50.919 98.4334L59.1123 91.6325L64.2093 91.6239C75.8147 91.6044 87.4325 89.3744 97.8704 85.1685L128.307 85.1173C130.443 85.1138 132.172 83.6786 132.169 81.9114L132.105 43.518C132.102 41.7517 130.368 40.3215 128.231 40.3251C128.231 40.3251 108.468 40.3566 108.445 40.3566C101.323 40.2636 94.2858 38.6757 88.0959 35.7641C76.0751 30.1111 76.6681 22.713 77.2413 15.5574C77.3577 14.1058 77.4682 12.7342 77.466 11.4011C77.462 9.63387 75.728 8.20369 73.5915 8.20727ZM84.2684 41.3271C96.6733 47.1611 108.342 46.7432 108.47 46.7572L124.374 46.7305L124.428 78.7249L96.9591 78.7711C96.3587 78.7721 95.7666 78.8889 95.2301 79.1114C85.648 83.0927 74.9175 85.207 64.1986 85.225L57.4999 85.2362C56.4744 85.238 55.4908 85.5762 54.7666 86.1782L45.4417 93.9175C43.9308 95.1707 41.487 95.1748 39.9719 93.9267C38.4629 92.682 38.4595 90.6523 39.9643 89.4025L54.4778 77.3568C55.7231 76.3241 55.9662 74.7264 55.0696 73.4715C54.174 72.2157 52.3649 71.6213 50.6712 72.025L20.5411 79.1993C18.491 79.6869 16.3437 78.7048 15.7556 77.0144C15.1695 75.3199 16.3592 73.5398 18.4254 73.0456L40.0569 67.7752L47.2391 67.7631C49.3757 67.7595 51.1049 66.3244 51.1019 64.5572C51.0989 62.79 49.3649 61.3606 47.2284 61.3642C42.7095 61.3718 15.53 61.4174 11.7072 61.4239C9.57468 61.4274 7.83666 59.9956 7.83369 58.2309C7.83073 56.467 9.56394 55.0285 11.6964 55.025L47.2942 54.9652C49.4307 54.9616 51.1599 53.5264 51.157 51.7592C51.154 49.992 49.42 48.5627 47.2835 48.5663L40.0771 48.5784L18.3538 43.6024C16.3646 43.1358 15.0874 41.4024 15.6919 39.6517C16.2753 37.9552 18.4192 36.9659 20.4709 37.4474C50.3852 44.4643 47.1804 43.604 59.7898 46.9781C60.595 47.1942 61.4677 47.4277 62.414 47.6802C64.7413 58.1012 75.817 66.0087 89.0774 65.9865C91.214 65.9829 92.9431 64.5477 92.9402 62.7805C92.9372 61.0133 91.2032 59.584 89.0667 59.5876C78.4022 59.6055 69.714 52.4438 69.6992 43.6228L69.699 43.4803C69.6977 42.6963 69.3489 41.9404 68.7183 41.3565C61.2485 34.4277 60.8152 25.9449 63.6992 20.6126C65.0519 18.1091 67.0756 16.306 69.5047 15.3613C68.9137 22.7502 68.1969 33.7695 84.2684 41.3271Z" fill="black"/>
</g>
<defs>
<clipPath id="clip0">
<rect width="109.208" height="132.032" fill="white" transform="translate(0.18335 109.43) rotate(-90.0962)"/>
</clipPath>
</defs>
</svg>
