<svg width="109" height="103" viewBox="0 0 109 103" fill="none" xmlns="http://www.w3.org/2000/svg">
<g clip-path="url(#clip0)">
<path d="M105.527 76.3365L84.6696 76.3307C83.8993 76.3307 83.1689 76.6217 82.6379 77.1205C82.0947 77.626 81.8042 78.3182 81.8042 79.0383C81.8042 84.121 76.6658 88.2584 70.3622 88.2584H67.5296H51.8628C52.7118 86.7349 53.2366 84.9882 53.2417 83.1273C53.2499 80.1974 52.052 77.3718 49.959 75.393C49.9089 75.3408 49.8516 75.3089 49.8066 75.277C51.8965 73.3514 53.2377 70.5897 53.2509 67.5012C53.2571 64.5712 52.0612 61.7466 49.9672 59.7573C49.8905 59.6935 49.8005 59.647 49.7207 59.5726C51.8648 57.6412 53.2428 54.8592 53.2509 51.7281C53.2571 48.7982 52.0612 45.9755 49.9672 43.9958C49.8455 43.8779 49.7135 43.8044 49.5948 43.701C51.1477 42.3467 52.2955 40.5429 52.8489 38.481C53.0228 38.481 53.1599 38.5013 53.3369 38.5013H68.8278C70.4093 38.5013 71.6942 37.2871 71.6942 35.7936C71.6942 34.2992 70.4093 33.0851 68.8278 33.0851H53.3307C46.3663 33.0851 46.0154 31.7259 46.0154 27.7819C46.0154 27.3054 45.8507 26.8829 45.6267 26.4924C45.2349 25.4416 44.1986 24.678 42.9486 24.678H22.573C20.8349 23.9423 19.592 22.0883 19.592 19.8901C19.592 17.0626 21.6267 14.7648 24.1371 14.7378C24.1473 14.7378 24.1586 14.7436 24.176 14.7436H70.3735C76.6934 14.7436 81.8165 19.0791 81.8165 24.4025V29.0492C81.8165 29.7762 82.1183 30.4644 82.6543 30.9719C83.1924 31.4756 83.9197 31.7569 84.6818 31.7569C84.6818 31.7569 84.6921 31.7569 84.7033 31.7569L106.154 31.5906C107.739 31.58 109.009 30.3475 109 28.8578C108.986 27.3701 107.705 26.1744 106.134 26.1744C106.129 26.1744 106.114 26.1744 106.11 26.1744L87.5472 26.3194V24.4179C87.5472 16.1075 79.8391 9.34185 70.3735 9.34185H42.4453C42.4166 9.34185 42.3951 9.32639 42.3573 9.32639H24.176C18.4892 9.32639 13.8593 14.0708 13.8593 19.8998C13.8593 21.8495 14.4137 23.6523 15.315 25.2232H10.3167C4.62794 25.2251 0 29.9482 0 35.754C0 38.9682 1.43728 41.8102 3.6602 43.7503C1.43728 45.6826 0 48.5227 0 51.7339C0 54.8872 1.38511 57.6954 3.53949 59.6268C1.38511 61.5456 0 64.3566 0 67.508C0 70.6235 1.34623 73.3891 3.45152 75.3205C1.34623 77.2461 0 80.0176 0 83.1157C0 88.936 4.62794 93.6717 10.3167 93.6717H10.7637H67.5307H70.3633C78.7476 93.6717 85.7447 88.5223 87.229 81.7421L105.517 81.7469C107.095 81.7469 108.383 80.5376 108.383 79.0383C108.382 77.5419 107.118 76.3365 105.527 76.3365ZM10.3095 56.865C7.78279 56.865 5.72661 54.5527 5.72661 51.733C5.72661 48.9142 7.7787 46.6213 10.3095 46.6213H42.3471C42.3573 46.6213 42.3634 46.6164 42.3737 46.6164H42.9424C44.3306 46.6164 45.3168 47.2689 45.9019 47.8306C46.9341 48.803 47.5192 50.2259 47.511 51.7281C47.5059 54.5527 45.4364 56.8273 42.9046 56.8273H10.8681C10.8077 56.8273 10.7586 56.864 10.6983 56.8689L10.3095 56.865ZM10.3095 30.6413H40.5078C41.143 34.4771 43.2258 36.7613 47.0926 37.8091C46.3755 39.6004 44.7644 40.8599 42.8964 40.8599H10.8609C10.8036 40.8599 10.7535 40.8851 10.6932 40.8909H10.3095C7.78279 40.8909 5.72661 38.5892 5.72661 35.7598C5.73173 32.9401 7.78279 30.6413 10.3095 30.6413ZM5.73173 67.5022C5.73173 64.6776 7.78279 62.3875 10.3167 62.3875H42.3522C42.3634 62.3875 42.3685 62.3808 42.3829 62.3808H42.9486C44.3306 62.3808 45.3209 63.0381 45.906 63.5988C46.9392 64.578 47.5254 65.9903 47.5182 67.5022C47.511 70.3055 45.4641 72.5801 42.9547 72.6013C42.9547 72.6013 42.9547 72.6013 42.9496 72.6013H42.3532H18.3573H10.3167C10.2666 72.6013 10.2185 72.6119 10.1725 72.6119C7.70709 72.5124 5.73173 70.2736 5.73173 67.5022ZM5.73173 83.1225C5.73173 80.3617 7.71425 78.1287 10.1684 78.0378C10.2185 78.0378 10.2666 78.0494 10.3095 78.0494H36.3841C36.4558 78.0494 36.511 78.0185 36.5795 78.0185H42.9036C42.9209 78.0185 42.9424 78.0069 42.9588 78.0069C44.3367 78.0185 45.3168 78.6633 45.8968 79.2239C46.9279 80.1983 47.511 81.6155 47.5059 83.1225C47.4988 85.9413 45.4364 88.2158 42.8974 88.2158H10.8609C10.7914 88.2158 10.7361 88.2593 10.6655 88.2642H10.3095C7.78279 88.2593 5.73173 85.9413 5.73173 83.1225Z" fill="black"/>
</g>
<defs>
<clipPath id="clip0">
<rect width="109" height="103" fill="white"/>
</clipPath>
</defs>
</svg>
