<svg width="425" height="359" viewBox="0 0 425 359" fill="none" xmlns="http://www.w3.org/2000/svg">
<ellipse cx="377.5" cy="47" rx="47.5" ry="47" fill="black"/>
<ellipse cx="47.5" cy="47" rx="47.5" ry="47" fill="black"/>
<rect x="26" y="107" width="42" height="252" rx="16" fill="#020202"/>
<rect x="30" y="154.518" width="42" height="147.557" rx="16" transform="rotate(-52.9444 30 154.518)" fill="#020202"/>
<rect x="266.338" y="243.223" width="42" height="147.557" rx="16" transform="rotate(-117.415 266.338 243.223)" fill="#020202"/>
<rect x="357" y="107" width="42" height="252" rx="16" fill="#020202"/>
<ellipse cx="172" cy="135" rx="41" ry="26" fill="white"/>
<path d="M149.592 182.421C140.981 167.624 145.996 148.647 160.793 140.036L171.165 134V134C179.776 148.798 174.761 167.774 159.964 176.385L149.592 182.421V182.421Z" fill="white"/>
<ellipse cx="267" cy="135" rx="41" ry="26" fill="white"/>
<path d="M282.955 185.615C265.859 184.688 252.751 170.078 253.678 152.982L254.328 141V141C271.424 141.927 284.531 156.537 283.604 173.633L282.955 185.615V185.615Z" fill="white"/>
<g clip-path="url(#clip0)">
<path d="M168.284 151.893C168.404 152.06 168.566 152.154 168.734 152.153L179.527 152.096C180.043 152.093 180.545 151.868 180.967 151.451C181.389 151.035 181.71 150.446 181.889 149.764C182.067 149.082 182.094 148.339 181.966 147.633C181.838 146.927 181.561 146.292 181.172 145.812C181.565 145.318 181.839 144.662 181.955 143.936C182.072 143.21 182.025 142.45 181.821 141.762L188.933 143.062C189.252 143.116 189.575 143.073 189.88 142.937C190.186 142.801 190.468 142.574 190.706 142.272C190.974 141.915 191.185 141.482 191.325 141.001C191.466 140.521 191.533 140.004 191.523 139.483C191.47 138.574 191.194 137.719 190.742 137.065C190.29 136.411 189.691 136 189.049 135.902L184.24 135.023L189.025 134.096C189.669 134.008 190.268 133.6 190.717 132.945C191.166 132.29 191.435 131.43 191.476 130.519C191.481 129.993 191.407 129.47 191.26 128.986C191.112 128.502 190.895 128.066 190.62 127.707C190.376 127.405 190.089 127.181 189.779 127.049C189.468 126.917 189.142 126.881 188.821 126.942L181.308 128.616L181.299 126.988C181.295 126.274 181.091 125.591 180.731 125.089C180.371 124.587 179.885 124.306 179.38 124.309L168.587 124.366C168.419 124.367 168.258 124.462 168.14 124.631L165.174 128.866L160.992 128.888L160.988 127.991C160.986 127.754 160.918 127.526 160.798 127.358C160.678 127.191 160.516 127.097 160.348 127.098L153.999 127.132C153.831 127.133 153.67 127.228 153.552 127.397C153.434 127.565 153.368 127.794 153.369 128.032L153.478 148.648C153.479 148.886 153.547 149.113 153.667 149.281C153.787 149.448 153.949 149.542 154.118 149.541L160.466 149.507C160.635 149.506 160.796 149.411 160.914 149.242C161.032 149.074 161.098 148.845 161.097 148.608L161.092 147.711L165.273 147.689L168.284 151.893ZM159.723 128.894L159.822 147.718L157.283 147.731L157.183 128.908L159.723 128.894ZM154.743 147.745L154.644 128.921L155.913 128.915L156.013 147.738L154.743 147.745ZM161.002 130.68L165.446 130.657C165.614 130.656 165.775 130.561 165.893 130.392L168.86 126.157L179.39 126.101C179.558 126.1 179.72 126.194 179.84 126.361C179.96 126.529 180.028 126.757 180.029 126.994L180.039 128.787L174.96 128.814L174.969 130.607L180.683 130.576C180.757 130.576 188.997 128.718 188.997 128.718C189.136 128.689 189.279 128.703 189.414 128.76C189.55 128.817 189.675 128.915 189.781 129.047C189.92 129.239 190.03 129.469 190.104 129.724C190.177 129.979 190.212 130.252 190.206 130.526C190.157 130.995 189.998 131.426 189.754 131.75C189.51 132.075 189.196 132.274 188.862 132.315L179.388 134.154L177.524 134.179L177.541 135.971L179.402 135.946L188.904 137.683C189.239 137.732 189.553 137.935 189.797 138.262C190.041 138.589 190.202 139.021 190.253 139.49C190.262 139.757 190.231 140.025 190.163 140.274C190.094 140.524 189.989 140.75 189.855 140.939C189.75 141.071 189.627 141.169 189.492 141.228C189.358 141.286 189.216 141.303 189.077 141.278L179.969 139.616C179.858 139.584 179.461 139.547 179.461 139.547L175.016 139.57L175.026 141.363L179.47 141.339C179.486 141.339 179.757 141.385 179.757 141.385C180.061 141.483 180.33 141.735 180.511 142.094C180.693 142.452 180.775 142.892 180.741 143.329C180.708 143.767 180.562 144.171 180.331 144.465C180.1 144.759 179.801 144.923 179.489 144.925L175.045 144.948L175.054 146.741L179.499 146.718C179.835 146.716 180.159 146.903 180.399 147.238C180.639 147.573 180.775 148.028 180.778 148.504C180.78 148.979 180.649 149.436 180.413 149.773C180.176 150.111 179.854 150.301 179.517 150.303L168.987 150.359L165.977 146.155C165.857 145.988 165.695 145.894 165.527 145.895L161.082 145.919L161.002 130.68Z" fill="black"/>
<path d="M169.985 148.561L171.255 148.554L171.245 146.761L170.238 146.767L167.228 142.563C167.108 142.396 166.946 142.302 166.777 142.303L164.238 142.316L164.247 144.109L166.524 144.097L169.535 148.3C169.655 148.468 169.817 148.561 169.985 148.561Z" fill="black"/>
<path d="M172.515 146.754L172.524 148.547L173.794 148.541L173.785 146.748L172.515 146.754Z" fill="black"/>
</g>
<g clip-path="url(#clip1)">
<path d="M281.949 143.94L275.634 143.938C275.401 143.938 275.18 144.036 275.019 144.206C274.854 144.378 274.766 144.613 274.766 144.858C274.766 146.585 273.211 147.991 271.302 147.991H270.445H265.702C265.959 147.473 266.118 146.879 266.119 146.247C266.122 145.252 265.759 144.291 265.125 143.619C265.11 143.601 265.093 143.59 265.079 143.58C265.712 142.925 266.118 141.987 266.122 140.937C266.124 139.942 265.762 138.982 265.128 138.306C265.104 138.284 265.077 138.268 265.053 138.243C265.702 137.587 266.119 136.641 266.122 135.578C266.124 134.582 265.762 133.623 265.128 132.95C265.091 132.91 265.051 132.885 265.015 132.85C265.485 132.39 265.833 131.777 266 131.076C266.053 131.076 266.094 131.083 266.148 131.083H270.838C271.317 131.083 271.706 130.67 271.706 130.163C271.706 129.655 271.317 129.242 270.838 129.242H266.146C264.038 129.242 263.931 128.781 263.931 127.44C263.931 127.279 263.881 127.135 263.814 127.002C263.695 126.645 263.381 126.386 263.003 126.386H256.834C256.308 126.136 255.932 125.506 255.932 124.759C255.932 123.798 256.548 123.017 257.308 123.008C257.311 123.008 257.314 123.01 257.319 123.01H271.306C273.219 123.01 274.77 124.483 274.77 126.292V127.871C274.77 128.118 274.861 128.352 275.024 128.524C275.187 128.696 275.407 128.791 275.638 128.791C275.638 128.791 275.641 128.791 275.644 128.791L282.138 128.735C282.618 128.731 283.003 128.312 283 127.806C282.996 127.301 282.608 126.894 282.132 126.894C282.131 126.894 282.126 126.894 282.125 126.894L276.505 126.943V126.297C276.505 123.473 274.171 121.174 271.306 121.174H262.85C262.842 121.174 262.835 121.169 262.824 121.169H257.319C255.598 121.169 254.196 122.781 254.196 124.762C254.196 125.425 254.364 126.037 254.637 126.571H253.123C251.401 126.572 250 128.177 250 130.149C250 131.242 250.435 132.207 251.108 132.867C250.435 133.523 250 134.488 250 135.579C250 136.651 250.419 137.605 251.072 138.262C250.419 138.914 250 139.869 250 140.94C250 141.998 250.408 142.938 251.045 143.594C250.408 144.249 250 145.19 250 146.243C250 148.221 251.401 149.83 253.123 149.83H253.259H270.445H271.303C273.841 149.83 275.959 148.08 276.409 145.776L281.945 145.778C282.423 145.778 282.813 145.367 282.813 144.858C282.813 144.349 282.43 143.94 281.949 143.94ZM253.121 137.323C252.356 137.323 251.734 136.537 251.734 135.579C251.734 134.621 252.355 133.842 253.121 133.842H262.821C262.824 133.842 262.826 133.841 262.829 133.841H263.001C263.421 133.841 263.72 134.062 263.897 134.253C264.209 134.584 264.387 135.067 264.384 135.578C264.383 136.537 263.756 137.31 262.989 137.31H253.29C253.272 137.31 253.257 137.323 253.239 137.324L253.121 137.323ZM253.121 128.412H262.264C262.456 129.716 263.087 130.492 264.257 130.848C264.04 131.456 263.553 131.884 262.987 131.884H253.288C253.271 131.884 253.256 131.893 253.237 131.895H253.121C252.356 131.895 251.734 131.113 251.734 130.151C251.735 129.193 252.356 128.412 253.121 128.412ZM251.735 140.938C251.735 139.978 252.356 139.2 253.123 139.2H262.822C262.826 139.2 262.827 139.197 262.832 139.197H263.003C263.421 139.197 263.721 139.421 263.898 139.611C264.211 139.944 264.388 140.424 264.386 140.938C264.384 141.89 263.764 142.663 263.005 142.67C263.005 142.67 263.005 142.67 263.003 142.67H262.823H255.558H253.123C253.108 142.67 253.094 142.674 253.08 142.674C252.333 142.64 251.735 141.879 251.735 140.938ZM251.735 146.246C251.735 145.307 252.336 144.549 253.078 144.518C253.094 144.518 253.108 144.522 253.121 144.522H261.015C261.037 144.522 261.054 144.511 261.075 144.511H262.989C262.994 144.511 263.001 144.507 263.006 144.507C263.423 144.511 263.72 144.73 263.895 144.921C264.208 145.252 264.384 145.733 264.383 146.246C264.38 147.203 263.756 147.976 262.987 147.976H253.288C253.267 147.976 253.25 147.991 253.229 147.993H253.121C252.356 147.991 251.735 147.203 251.735 146.246Z" fill="black"/>
</g>
<defs>
<clipPath id="clip0">
<rect width="57.3679" height="40.6326" fill="white" transform="translate(152.303 166.582) rotate(-90.3027)"/>
</clipPath>
<clipPath id="clip1">
<rect width="33" height="35" fill="white" transform="translate(250 118)"/>
</clipPath>
</defs>
</svg>
