<svg width="80" height="89" viewBox="0 0 80 89" fill="none" xmlns="http://www.w3.org/2000/svg">
<path d="M5 79.2656H60V86.2188H62.5V83.4375H68.75C69.44 83.4375 70 82.8145 70 82.0469V51.3419C74.2338 50.6632 77.5 46.6124 77.5 41.7188C77.5 36.3509 73.575 31.9844 68.75 31.9844V34.7656C72.1962 34.7656 75 37.8848 75 41.7188C75 45.5527 72.1962 48.6719 68.75 48.6719C65.3038 48.6719 62.5 45.5527 62.5 41.7188H60C60 46.6124 63.2662 50.6632 67.5 51.3419V80.6562H62.5V77.875C62.5 77.1074 61.94 76.4844 61.25 76.4844H42.5V73.7031H55C55.69 73.7031 56.25 73.0801 56.25 72.3125V63.9688H61.25C61.94 63.9688 62.5 63.3457 62.5 62.5781V51.4531C62.5 50.6855 61.94 50.0625 61.25 50.0625H56.25V41.7188C56.25 40.9511 55.69 40.3281 55 40.3281H10C9.31 40.3281 8.75 40.9511 8.75 41.7188V50.0625H3.75C3.06 50.0625 2.5 50.6855 2.5 51.4531V62.5781C2.5 63.3457 3.06 63.9688 3.75 63.9688H8.75V72.3125C8.75 73.0801 9.31 73.7031 10 73.7031H22.5V76.4844H3.75C3.06 76.4844 2.5 77.1074 2.5 77.875V86.2188H5V79.2656ZM51.25 70.9219V64.5445L53.75 61.7632V70.9219H51.25ZM60 52.8438V61.1875H56.25V52.8438H60ZM53.75 43.1094V57.8305L49.1162 62.9856C48.8812 63.2456 48.75 63.6002 48.75 63.9688V70.9219H16.25V63.9688C16.25 63.6002 16.1187 63.2456 15.8837 62.9856L11.25 57.8305V43.1094H53.75ZM5 61.1875V52.8438H8.75V61.1875H5ZM11.25 61.7632L13.75 64.5445V70.9219H11.25V61.7632ZM25 73.7031H40V76.4844H25V73.7031Z" fill="black"/>
<path d="M18.75 55.625H28.75C29.44 55.625 30 55.002 30 54.2344V48.6719C30 47.9043 29.44 47.2812 28.75 47.2812H18.75C18.06 47.2812 17.5 47.9043 17.5 48.6719V54.2344C17.5 55.002 18.06 55.625 18.75 55.625ZM20 50.0625H27.5V52.8438H20V50.0625Z" fill="black"/>
<path d="M36.25 55.625H46.25C46.94 55.625 47.5 55.002 47.5 54.2344V48.6719C47.5 47.9043 46.94 47.2812 46.25 47.2812H36.25C35.56 47.2812 35 47.9043 35 48.6719V54.2344C35 55.002 35.56 55.625 36.25 55.625ZM37.5 50.0625H45V52.8438H37.5V50.0625Z" fill="black"/>
<path d="M18.75 59.7969H21.25V62.5781H18.75V59.7969Z" fill="black"/>
<path d="M23.75 59.7969H26.25V62.5781H23.75V59.7969Z" fill="black"/>
<path d="M28.75 59.7969H31.25V62.5781H28.75V59.7969Z" fill="black"/>
<path d="M33.75 59.7969H36.25V62.5781H33.75V59.7969Z" fill="black"/>
<path d="M38.75 59.7969H41.25V62.5781H38.75V59.7969Z" fill="black"/>
<path d="M43.75 59.7969H46.25V62.5781H43.75V59.7969Z" fill="black"/>
<path d="M18.75 65.3594H21.25V68.1406H18.75V65.3594Z" fill="black"/>
<path d="M23.75 65.3594H26.25V68.1406H23.75V65.3594Z" fill="black"/>
<path d="M28.75 65.3594H31.25V68.1406H28.75V65.3594Z" fill="black"/>
<path d="M33.75 65.3594H36.25V68.1406H33.75V65.3594Z" fill="black"/>
<path d="M38.75 65.3594H41.25V68.1406H38.75V65.3594Z" fill="black"/>
<path d="M43.75 65.3594H46.25V68.1406H43.75V65.3594Z" fill="black"/>
<path d="M41.9775 37.4203C42.145 37.5052 42.3225 37.5469 42.5 37.5469C42.7925 37.5469 43.0825 37.4315 43.3138 37.2117L51.7125 29.2031H76.25C76.94 29.2031 77.5 28.5801 77.5 27.8125V4.17188C77.5 3.40425 76.94 2.78125 76.25 2.78125H17.5C16.81 2.78125 16.25 3.40425 16.25 4.17188V27.8125C16.25 28.5801 16.81 29.2031 17.5 29.2031H41.25V36.1562C41.25 36.7 41.535 37.1923 41.9775 37.4203ZM18.75 26.4219V5.5625H75V26.4219H51.25C50.9513 26.4219 50.6625 26.5401 50.4362 26.757L43.75 33.133V27.8125C43.75 27.0449 43.19 26.4219 42.5 26.4219H18.75Z" fill="black"/>
<path d="M22.5 9.73438H25V22.25H22.5V9.73438Z" fill="black"/>
<path d="M42.5 9.73438H45V22.25H42.5V9.73438Z" fill="black"/>
<path d="M48.75 9.73438H51.25V22.25H48.75V9.73438Z" fill="black"/>
<path d="M68.75 9.73438H71.25V22.25H68.75V9.73438Z" fill="black"/>
<path d="M37.5 9.73438H30C29.31 9.73438 28.75 10.3574 28.75 11.125V20.8594C28.75 21.627 29.31 22.25 30 22.25H37.5C38.19 22.25 38.75 21.627 38.75 20.8594V11.125C38.75 10.3574 38.19 9.73438 37.5 9.73438ZM36.25 19.4688H31.25V12.5156H36.25V19.4688Z" fill="black"/>
<path d="M56.25 22.25H63.75C64.44 22.25 65 21.627 65 20.8594V11.125C65 10.3574 64.44 9.73438 63.75 9.73438H56.25C55.56 9.73438 55 10.3574 55 11.125V20.8594C55 21.627 55.56 22.25 56.25 22.25ZM57.5 12.5156H62.5V19.4688H57.5V12.5156Z" fill="black"/>
</svg>
